<?xml version="1.0" encoding="UTF-8"?>
<svg viewBox="0 0 40 20">
    <path d="M 11.251854,7.8389094 H 3.3703797 V 5.8761746 c 0,-1.7532294 1.4264604,-3.1798594 3.1798594,-3.1798594 1.4316768,0 2.6934591,0.9633855 3.0687876,2.3427284 0.1229042,0.4519633 0.5889903,0.7186798 1.0410383,0.5958605 0.452048,-0.1229042 0.718807,-0.5890325 0.59586,-1.0410807 C 10.680422,2.477734 8.7452535,1 6.5501119,1 3.8613179,1 1.6738101,3.1875078 1.6738101,5.8763018 V 7.8574849 C 1.2895755,7.9381488 1,8.2795493 1,8.6874911 v 7.4238709 c 0,0.467782 0.3805025,0.8482 0.8482,0.8482 h 9.403569 c 0.467783,0 0.8482,-0.380503 0.8482,-0.8482 V 8.6874911 c 0,-0.4677823 -0.380502,-0.8482 -0.8482,-0.8482 M 7.6893293,14.185948 c 0.017303,0.09169 -0.04487,0.166713 -0.1381718,0.166713 H 5.5715859 c -0.093302,0 -0.155475,-0.07502 -0.1381717,-0.166713 l 0.3151911,-1.67053 C 5.5100066,12.297812 5.3602569,11.984444 5.3602569,11.636089 c 0,-0.657143 0.532712,-1.190025 1.1900246,-1.190025 0.657143,0 1.1900246,0.532712 1.1900246,1.190025 0,0.338898 -0.1419038,0.64442 -0.3692639,0.861135 z" />
</svg>